Coordinates
version=1
nRows=21
nColumns=22
inDegrees=yes

Units are S.I. units (second, meters, Newtons, ...)
If the header above contains a line with 'inDegrees', this indicates whether rotational values are in degrees (yes) or radians (no).

endheader
time	pelvis_tilt	pelvis_list	pelvis_rotation	pelvis_tx	pelvis_ty	pelvis_tz	hip_flexion_r	hip_adduction_r	hip_rotation_r	knee_angle_r	ankle_angle_r	subtalar_angle_r	hip_flexion_l	hip_adduction_l	hip_rotation_l	knee_angle_l	ankle_angle_l	subtalar_angle_l	lumbar_extension	lumbar_bending	lumbar_rotation
      3.04000000	      7.25026170	     -0.78890452	     14.64933865	      0.11304583	      0.92255409	      0.59164533	     18.72433829	     -3.06592133	     -2.11888882	    -12.51257236	      2.91439850	     14.03730478	    -10.94354494	      3.64886893	      2.40716803	    -21.98983451	     30.32060043	    -17.76374786	    -15.08559445	      3.86350295	    -11.31971838
      3.05000000	      7.46097471	     -0.89769977	     15.43629493	      0.12273916	      0.92075274	      0.58975832	     18.45569880	     -2.88978479	     -1.66329147	    -10.85762772	      3.08208599	     15.04935785	    -11.49444406	      3.22935085	      2.81929618	    -22.61654935	     30.85509554	    -17.68996761	    -15.14581537	      4.05932097	    -11.38928726
      3.06000000	      7.68408005	     -1.02806665	     16.23254524	      0.13257595	      0.91903946	      0.58780180	     18.21564059	     -2.71285104	     -1.37128901	     -9.65604207	      3.28218438	     15.92822962	    -12.03085510	      2.77389328	      3.20006113	    -23.29367397	     31.31393293	    -17.66466332	    -15.19366668	      4.28766711	    -11.47934561
      3.07000000	      7.89317013	     -1.21695735	     17.05405170	      0.14252245	      0.91735142	      0.58577735	     18.06651332	     -2.50226357	     -1.34759704	     -8.95347658	      3.47329618	     16.30440955	    -12.46453841	      2.24933207	      3.55237335	    -24.11257619	     31.75506256	    -17.67296085	    -15.18875506	      4.58083108	    -11.58146976
      3.08000000	      8.14286788	     -1.42235614	     17.86489841	      0.15261637	      0.91585486	      0.58375432	     17.92583612	     -2.25973607	     -1.45655250	     -8.71144672	      3.58007664	     16.63416319	    -12.90826580	      1.69151924	      3.90175966	    -24.98499051	     32.00151196	    -17.72774822	    -15.20906735	      4.89793310	    -11.71173773
      3.09000000	      8.39792010	     -1.63188915	     18.66957655	      0.16285965	      0.91450257	      0.58171724	     17.81227557	     -2.00693024	     -1.74138146	     -8.87798227	      3.54195938	     16.82172956	    -13.30254505	      1.12268258	      4.24450594	    -25.95719664	     32.11836928	    -17.82361045	    -15.21430274	      5.21359868	    -11.81912095
      3.10000000	      8.63736130	     -1.87654878	     19.44576200	      0.17329284	      0.91325981	      0.57972902	     17.77694968	     -1.70384318	     -2.10144212	     -9.46045270	      3.34462543	     16.78454364	    -13.61933896	      0.51694463	      4.55115180	    -27.01998989	     32.04264320	    -17.92762674	    -15.16567922	      5.55267404	    -11.94799020
      3.11000000	      8.85378072	     -2.13460899	     20.23392943	      0.18385529	      0.91213299	      0.57775382	     17.78099970	     -1.38474196	     -2.54352841	    -10.33950482	      2.93919850	     16.51599912	    -13.83143782	     -0.09968852	      4.92869820	    -28.20853215	     31.87818196	    -18.01130113	    -15.06938497	      5.88354547	    -12.08251897
      3.12000000	      9.01397504	     -2.41155915	     20.95755313	      0.19464061	      0.91108556	      0.57592081	     17.90112566	     -1.02781146	     -2.95040465	    -11.53351748	      2.37609728	     15.90338430	    -13.92348097	     -0.72358941	      5.22481631	    -29.48716512	     31.46363719	    -18.00205274	    -14.88189204	      6.18214001	    -12.20103710
      3.13000000	      9.20229847	     -2.71066483	     21.64886072	      0.20563252	      0.91029884	      0.57414212	     17.96886598	     -0.60144668	     -3.25639035	    -12.83809706	      1.58836021	     15.53172787	    -13.99097853	     -1.38549216	      5.52058873	    -30.82905888	     30.83129753	    -17.96014273	    -14.69693038	      6.49876463	    -12.28899907
      3.14000000	      9.30953420	     -3.02060052	     22.25571323	      0.21684894	      0.90957546	      0.57253189	     18.17320187	     -0.14823326	     -3.46337351	    -14.34417501	      0.81161076	     14.84096253	    -13.90982364	     -2.04293886	      5.68607355	    -32.25723165	     29.97716388	    -17.63108188	    -14.40323620	      6.75528471	    -12.34218204
      3.15000000	      9.45569931	     -3.34212483	     22.82242144	      0.22827184	      0.90919535	      0.57093221	     18.27069392	      0.37504826	     -3.51206592	    -15.78968648	     -0.03862630	     14.36171336	    -13.82371694	     -2.72027849	      5.86744988	    -33.72578140	     28.83258490	    -17.36123652	    -14.13054138	      7.02420259	    -12.32889055
      3.16000000	      9.57386402	     -3.65788461	     23.28389984	      0.23996777	      0.90900606	      0.56943775	     18.41556559	      0.92522051	     -3.48458208	    -17.32273838	     -0.66612891	     13.71216206	    -13.67172751	     -3.39549169	      5.86454893	    -35.23053049	     27.40805658	    -16.80698825	    -13.81078689	      7.24516498	    -12.26689088
      3.17000000	      9.73236679	     -3.96049785	     23.69077042	      0.25186528	      0.90917072	      0.56789017	     18.43682239	      1.51134073	     -3.36026277	    -18.74639101	     -1.13764622	     13.10482646	    -13.51833838	     -4.06377298	      5.82576812	    -36.77114554	     25.65529657	    -16.27630408	    -13.52387634	      7.46161410	    -12.13319427
      3.18000000	      9.92328562	     -4.23805322	     24.03717691	      0.26395579	      0.90964997	      0.56626425	     18.34707522	      2.10856412	     -3.20179315	    -20.07753702	     -1.36450950	     12.47100062	    -13.34818739	     -4.71170330	      5.71688067	    -38.35781117	     23.57769188	    -15.73361267	    -13.26597683	      7.66107697	    -11.94347112
      3.19000000	     10.15309341	     -4.47654736	     24.33830711	      0.27617666	      0.91043544	      0.56452598	     18.11937160	      2.69745609	     -3.03226577	    -21.28819131	     -1.36740700	     11.83525841	    -13.14849281	     -5.33125681	      5.54077920	    -40.01591061	     21.17027159	    -15.26223523	    -13.05613233	      7.84281546	    -11.73031407
      3.20000000	     10.42063881	     -4.67916220	     24.61493370	      0.28844420	      0.91148340	      0.56263416	     17.74953661	      3.26776637	     -2.89948417	    -22.36587068	     -1.12638078	     11.17847543	    -12.88910669	     -5.91944070	      5.34254093	    -41.77476278	     18.46327817	    -14.84822202	    -12.89796592	      8.01717125	    -11.48590266
      3.21000000	     10.71343649	     -4.84684618	     24.89429901	      0.30065459	      0.91273043	      0.56057430	     17.24281496	      3.80795462	     -2.81653638	    -23.28895821	     -0.68101473	     10.52857626	    -12.52236549	     -6.47441046	      5.15596885	    -43.67112311	     15.49410350	    -14.53603319	    -12.78847132	      8.18520735	    -11.23522543
      3.22000000	     11.01655378	     -4.98519213	     25.20104677	      0.31268660	      0.91410803	      0.55832811	     16.61964118	      4.30744185	     -2.80643040	    -24.04987597	     -0.07259420	      9.88792499	    -12.00201143	     -6.99161996	      5.02682301	    -45.73032300	     12.33942857	    -14.32512209	    -12.71915069	      8.35402185	    -10.99051284
      3.23000000	     11.31899981	     -5.11041302	     25.56426548	      0.32445192	      0.91554906	      0.55588582	     15.90569309	      4.76939806	     -2.89398680	    -24.65126303	      0.65604497	      9.25957443	    -11.29372310	     -7.48105402	      5.00082319	    -47.95761984	      9.08512409	    -14.22175032	    -12.68002119	      8.53958388	    -10.76848113
      3.24000000	     11.61032238	     -5.22171698	     26.00396561	      0.33584795	      0.91700734	      0.55324586	     15.11273214	      5.18503534	     -3.08311630	    -25.07605814	      1.43527867	      8.72494727	    -10.37649680	     -7.92931561	      5.11535623	    -50.34454071	      5.83985385	    -14.26758006	    -12.67120699	      8.73734012	    -10.57906464
